<?xml version="1.0" encoding="UTF-8" standalone="no" ?>
<!DOCTYPE svg PUBLIC "-//W3C//DTD SVG 1.1//EN" "http://www.w3.org/Graphics/SVG/1.1/DTD/svg11.dtd">
<svg xmlns="http://www.w3.org/2000/svg" xmlns:xlink="http://www.w3.org/1999/xlink" version="1.1" width="500" height="500" viewBox="0 0 500 500" xml:space="preserve">
<desc>Created with Fabric.js 4.6.0</desc>
<defs>
</defs>
<g transform="matrix(1.04 0 0 1.04 250 250)" id="1cT_tmULHKsUh-QREp2hY"  >
<g style="" vector-effect="non-scaling-stroke"   >
		<g transform="matrix(1 0 0 1 4.15 -70.96)" id="4_7ss4Z462QpZeOaaCmb8"  >
<path style="stroke: none; stroke-width: 1; stroke-dasharray: none; stroke-linecap: butt; stroke-dashoffset: 0; stroke-linejoin: miter; stroke-miterlimit: 4; fill: rgb(253,33,85); fill-rule: nonzero; opacity: 1;" vector-effect="non-scaling-stroke"  transform=" translate(0, 0)" d="M 50.71083 75.361 C 50.71083 75.361 53.18855 82.48309 50.71083 75.361 C 51.0889 63.35409000000001 47.785270000000004 53.85797000000001 40.79994 46.872640000000004 C 39.23364 42.281760000000006 33.278819999999996 37.29966 22.93548 31.926320000000004 C 6.794379999999997 25.418770000000002 -7.388170000000002 19.612660000000005 -19.61217 14.508000000000003 C -31.83684 9.403330000000004 -43.12084 3.224000000000002 -53.464169999999996 -4.029999999999998 C -63.80817 -11.283999999999997 -72.47283999999999 -20.217329999999997 -79.45817 -30.83 C -86.4435 -41.442 -89.93616999999999 -54.94233 -89.93616999999999 -71.33099999999999 L -89.93616999999999 -71.33099999999999 C -89.93616999999999 -79.39099999999999 -88.39116999999999 -87.85399999999998 -85.30116999999998 -96.71999999999998 C -82.21183999999998 -105.58599999999998 -77.17449999999998 -113.78032999999999 -70.18916999999999 -121.30299999999998 C -63.20383999999999 -128.82566999999997 -54.00183999999999 -135.005 -42.58316999999999 -139.84099999999998 C -31.16516999999999 -144.677 -16.99316999999999 -147.09499999999997 -0.06716999999999018 -147.09499999999997 L -0.06716999999999018 -147.09499999999997 C 22.23216000000001 -147.09499999999997 40.83750000000001 -142.32632999999998 55.74883000000001 -132.78899999999996 C 70.65950000000001 -123.25099999999996 81.33883000000002 -107.60099999999996 87.78683000000001 -85.83899999999996 L 87.78683000000001 -85.83899999999996 L 52.72583000000001 -73.34599999999996 C 48.15850000000001 -86.51066999999996 41.03883000000001 -96.85432999999996 31.366830000000007 -104.37699999999995 C 21.694830000000007 -111.89966999999996 9.470500000000008 -115.66099999999996 -5.3061699999999945 -115.66099999999996 L -5.3061699999999945 -115.66099999999996 C -19.008169999999993 -115.66099999999996 -30.090499999999995 -112.03399999999996 -38.553169999999994 -104.77999999999996 C -47.01649999999999 -97.52599999999995 -51.248169999999995 -87.45099999999996 -51.248169999999995 -74.55499999999995 L -51.248169999999995 -74.55499999999995 C -51.248169999999995 -63.53966999999995 -47.7555 -54.47232999999995 -40.77016999999999 -47.35299999999995 C -33.784839999999996 -40.232999999999954 -25.120169999999995 -33.91932999999995 -14.776169999999993 -28.411999999999953 L 2.7168900000000065 -20.185839999999953 L 19.075830000000007 -12.492999999999952 C 23.782100000000007 -9.953279999999953 23.511390000000006 -10.310789999999953 33.515840000000004 -4.544799999999952 C 43.52029 1.221190000000048 45.80138 3.079980000000048 51.934920000000005 7.142130000000048 C 60.63777 13.858930000000047 68.48186000000001 22.120330000000045 75.4672 31.926330000000046 C 78.9255 35.633780000000044 86.55417 49.659370000000045 87.78683000000001 55.974890000000045 C 88.51239000000001 59.65349000000005 89.39883 58.992640000000044 89.39883 67.70400000000005 C 89.39883 67.70400000000005 90.60783 61.10500000000005 89.39883 67.70400000000005 C 89.39883 76.03267000000005 87.78683000000001 84.83133000000005 84.56283 94.10000000000005 C 81.33883 103.36933000000005 76.09983000000001 111.96667000000005 68.84583 119.89200000000005 C 61.59183000000001 127.81800000000005 51.98716 134.33333000000005 40.03183000000001 139.43800000000005 C 28.075830000000007 144.54267000000004 13.231830000000006 147.09500000000006 -4.50016999999999 147.09500000000006 L -4.50016999999999 147.09500000000006 C -27.71945999999999 147.09500000000006 -47.32176999999999 141.25133000000005 -63.30710999999999 129.56400000000005 C -73.18974999999999 114.92200000000005 -81.48939999999999 94.30200000000005 -88.20606999999998 67.70400000000005 L -84.39983999999998 66.49697000000005 L -53.46416999999998 58.95196000000005 C -50.91216999999998 96.75799000000005 -33.38183999999998 115.66100000000006 -0.8731699999999805 115.66100000000006 L -0.8731699999999805 115.66100000000006 C 14.17216000000002 115.66100000000006 26.53083000000002 111.83233000000006 36.20283000000002 104.17500000000005 C 45.87483000000002 96.51833000000005 50.710830000000016 86.91367000000005 50.710830000000016 75.36100000000005 z" stroke-linecap="round" />
</g>
		<g transform="matrix(1 0 0 1 -0.19 70.96)" id="vn0Zq4txph9Aq31eJV7ZP"  >
<path style="stroke: none; stroke-width: 1; stroke-dasharray: none; stroke-linecap: butt; stroke-dashoffset: 0; stroke-linejoin: miter; stroke-miterlimit: 4; fill: rgb(5,253,216); fill-rule: nonzero; opacity: 1;" vector-effect="non-scaling-stroke"  transform=" translate(0, 0)" d="M 55.211 75.361 L 55.211 75.361 C 55.211 64.61433000000001 51.71833 55.74833 44.733 48.763000000000005 C 37.74767 41.77767000000001 29.083 35.598330000000004 18.738999999999997 30.225000000000005 C 8.395669999999997 24.851670000000006 -2.8883300000000034 19.612670000000005 -15.113 14.508000000000004 C -27.337 9.403330000000004 -38.620999999999995 3.2240000000000038 -48.964999999999996 -4.029999999999996 C -59.30833 -11.283999999999995 -67.97267 -20.217329999999997 -74.958 -30.83 C -81.94333 -41.442 -85.43599999999999 -54.94233 -85.43599999999999 -71.33099999999999 L -85.43599999999999 -71.33099999999999 C -85.43599999999999 -79.39099999999999 -83.89133 -87.85399999999998 -80.80199999999999 -96.71999999999998 C -77.71199999999999 -105.58599999999998 -72.67433 -113.78032999999999 -65.689 -121.30299999999998 C -58.703669999999995 -128.82566999999997 -49.501999999999995 -135.005 -38.08399999999999 -139.84099999999998 C -26.66532999999999 -144.677 -12.492999999999988 -147.09499999999997 4.433000000000014 -147.09499999999997 L 4.433000000000014 -147.09499999999997 C 26.732330000000015 -147.09499999999997 45.337330000000016 -142.32632999999998 60.24800000000001 -132.78899999999996 C 75.15933000000001 -123.25099999999996 85.83900000000001 -107.60099999999996 92.287 -85.83899999999996 L 92.287 -85.83899999999996 L 57.769560000000006 -75.05754999999996 L 54.793330000000005 -74.12792999999996 C 51.847770000000004 -86.77130999999997 45.539 -96.85432999999996 35.867000000000004 -104.37699999999997 C 26.195000000000004 -111.89966999999997 13.970670000000005 -115.66099999999997 -0.8059999999999974 -115.66099999999997 L -0.8059999999999974 -115.66099999999997 C -14.507999999999997 -115.66099999999997 -25.590669999999996 -112.03399999999998 -34.053999999999995 -104.77999999999997 C -42.51666999999999 -97.52599999999997 -46.748 -87.45099999999996 -46.748 -74.55499999999998 L -46.748 -74.55499999999998 C -46.748 -63.53966999999998 -43.25533 -54.47232999999998 -36.269999999999996 -47.35299999999998 C -29.284669999999995 -40.23299999999998 -20.620329999999996 -33.91932999999998 -10.276999999999997 -28.41199999999998 C 0.06700000000000195 -22.903999999999982 11.351000000000003 -17.59766999999998 23.575 -12.49299999999998 C 35.79967 -7.388329999999981 47.08367 -1.41066999999998 57.42699999999999 5.440000000000019 C 67.77099999999999 12.29133000000002 76.43566999999999 20.62000000000002 83.42099999999999 30.42600000000002 C 90.40633 40.23267000000002 93.89899999999999 52.658670000000015 93.89899999999999 67.70400000000002 L 93.89899999999999 67.70400000000002 C 93.89899999999999 76.03267000000002 92.28699999999999 84.83133000000002 89.06299999999999 94.10000000000002 C 85.83899999999998 103.36933000000002 80.6 111.96667000000002 73.34599999999999 119.89200000000002 C 66.09199999999998 127.81800000000003 56.48699999999999 134.33333000000002 44.53099999999999 139.43800000000002 C 32.57566999999999 144.54267000000002 17.731999999999992 147.09500000000003 -7.105427357601002e-15 147.09500000000003 L -7.105427357601002e-15 147.09500000000003 C -23.911330000000007 147.09500000000003 -43.86000000000001 141.25133000000002 -59.846000000000004 129.56400000000002 C -75.83133000000001 117.87733000000003 -87.18233000000001 98.73500000000001 -93.899 72.13700000000003 L -93.899 72.13700000000003 L -59.241 59.64400000000003 C -49.83767 96.98867000000003 -28.88167 115.66100000000003 3.6270000000000024 115.66100000000003 L 3.6270000000000024 115.66100000000003 C 18.672330000000002 115.66100000000003 31.031000000000002 111.83233000000003 40.703 104.17500000000003 C 50.375 96.51833000000002 55.211 86.91367000000002 55.211 75.36100000000002 z" stroke-linecap="round" />
</g>
</g>
</g>
</svg>